<?xml version="1.0" encoding="UTF-8"?>
<!DOCTYPE svg
PUBLIC "-//W3C//DTD SVG 1.1//EN"
       "http://www.w3.org/Graphics/SVG/1.1/DTD/svg11.dtd">
<svg viewBox="191 22 1482 707" width="1291px" height="685px" xmlns="http://www.w3.org/2000/svg" version="1.1">
   <line x1="1007" y1="107" x2="997" y2="107" style="stroke:#bbb;stroke-width:1;"/>
   <line x1="380" y1="68" x2="370" y2="68" style="stroke:#bbb;stroke-width:1;"/>
   <line x1="997" y1="107" x2="380" y2="68" style="stroke:#bbb;stroke-width:1;"/>
   <line x1="999.5" y1="107" x2="1003.0355339059" y2="110.53553390593" style="stroke:#bbb;stroke-width:2;"/>
   <line x1="999.5" y1="107" x2="1003.0355339059" y2="103.46446609407" style="stroke:#bbb;stroke-width:2;"/>
   <line x1="375" y1="68" x2="378.53553390593" y2="71.535533905933" style="stroke:#bbb;stroke-width:2;"/>
   <line x1="375" y1="68" x2="378.53553390593" y2="64.464466094067" style="stroke:#bbb;stroke-width:2;"/>
   <line x1="1007" y1="127" x2="997" y2="127" style="stroke:#0b0;stroke-width:1;"/>
   <line x1="380" y1="148" x2="370" y2="148" style="stroke:#0b0;stroke-width:1;"/>
   <line x1="997" y1="127" x2="380" y2="148" style="stroke:#0b0;stroke-width:1;"/>
   <line x1="999.5" y1="127" x2="1003.0355339059" y2="130.53553390593" style="stroke:#0b0;stroke-width:2;"/>
   <line x1="999.5" y1="127" x2="1003.0355339059" y2="123.46446609407" style="stroke:#0b0;stroke-width:2;"/>
   <line x1="375" y1="148" x2="378.53553390593" y2="151.53553390593" style="stroke:#0b0;stroke-width:2;"/>
   <line x1="375" y1="148" x2="378.53553390593" y2="144.46446609407" style="stroke:#0b0;stroke-width:2;"/>
   <line x1="676" y1="179" x2="666" y2="179" style="stroke:#333;stroke-width:1;"/>
   <line x1="670" y1="431" x2="680" y2="431" style="stroke:#333;stroke-width:1;"/>
   <line x1="666" y1="179" x2="670" y2="431" style="stroke:#333;stroke-width:1;"/>
   <line x1="668.5" y1="179" x2="672.03553390593" y2="182.53553390593" style="stroke:#333;stroke-width:2;"/>
   <line x1="668.5" y1="179" x2="672.03553390593" y2="175.46446609407" style="stroke:#333;stroke-width:2;"/>
   <line x1="675" y1="431" x2="671.46446609407" y2="434.53553390593" style="stroke:#333;stroke-width:2;"/>
   <line x1="675" y1="431" x2="671.46446609407" y2="427.46446609407" style="stroke:#333;stroke-width:2;"/>
   <line x1="676" y1="199" x2="666" y2="199" style="stroke:#c00;stroke-width:1;"/>
   <line x1="380" y1="68" x2="370" y2="68" style="stroke:#c00;stroke-width:1;"/>
   <line x1="666" y1="199" x2="380" y2="68" style="stroke:#c00;stroke-width:1;"/>
   <line x1="668.5" y1="199" x2="672.03553390593" y2="202.53553390593" style="stroke:#c00;stroke-width:2;"/>
   <line x1="668.5" y1="199" x2="672.03553390593" y2="195.46446609407" style="stroke:#c00;stroke-width:2;"/>
   <line x1="375" y1="68" x2="378.53553390593" y2="71.535533905933" style="stroke:#c00;stroke-width:2;"/>
   <line x1="375" y1="68" x2="378.53553390593" y2="64.464466094067" style="stroke:#c00;stroke-width:2;"/>
   <line x1="339" y1="522" x2="349" y2="522" style="stroke:#c00;stroke-width:1;"/>
   <line x1="666" y1="219" x2="676" y2="219" style="stroke:#c00;stroke-width:1;"/>
   <line x1="349" y1="522" x2="666" y2="219" style="stroke:#c00;stroke-width:1;"/>
   <line x1="346.5" y1="522" x2="342.96446609407" y2="525.53553390593" style="stroke:#c00;stroke-width:2;"/>
   <line x1="346.5" y1="522" x2="342.96446609407" y2="518.46446609407" style="stroke:#c00;stroke-width:2;"/>
   <line x1="671" y1="219" x2="667.46446609407" y2="222.53553390593" style="stroke:#c00;stroke-width:2;"/>
   <line x1="671" y1="219" x2="667.46446609407" y2="215.46446609407" style="stroke:#c00;stroke-width:2;"/>
   <line x1="339" y1="542" x2="349" y2="542" style="stroke:#333;stroke-width:1;"/>
   <line x1="670" y1="491" x2="680" y2="491" style="stroke:#333;stroke-width:1;"/>
   <line x1="349" y1="542" x2="670" y2="491" style="stroke:#333;stroke-width:1;"/>
   <line x1="346.5" y1="542" x2="342.96446609407" y2="545.53553390593" style="stroke:#333;stroke-width:2;"/>
   <line x1="346.5" y1="542" x2="342.96446609407" y2="538.46446609407" style="stroke:#333;stroke-width:2;"/>
   <line x1="675" y1="491" x2="671.46446609407" y2="494.53553390593" style="stroke:#333;stroke-width:2;"/>
   <line x1="675" y1="491" x2="671.46446609407" y2="487.46446609407" style="stroke:#333;stroke-width:2;"/>
   <line x1="339" y1="562" x2="349" y2="562" style="stroke:#0b0;stroke-width:1;"/>
   <line x1="994" y1="562" x2="1004" y2="562" style="stroke:#0b0;stroke-width:1;"/>
   <line x1="349" y1="562" x2="994" y2="562" style="stroke:#0b0;stroke-width:1;"/>
   <line x1="346.5" y1="562" x2="342.96446609407" y2="565.53553390593" style="stroke:#0b0;stroke-width:2;"/>
   <line x1="346.5" y1="562" x2="342.96446609407" y2="558.46446609407" style="stroke:#0b0;stroke-width:2;"/>
   <line x1="999" y1="562" x2="995.46446609407" y2="565.53553390593" style="stroke:#0b0;stroke-width:2;"/>
   <line x1="999" y1="562" x2="995.46446609407" y2="558.46446609407" style="stroke:#0b0;stroke-width:2;"/>
   <line x1="339" y1="582" x2="349" y2="582" style="stroke:#b0b;stroke-width:1;"/>
   <line x1="994" y1="522" x2="1004" y2="522" style="stroke:#b0b;stroke-width:1;"/>
   <line x1="349" y1="582" x2="994" y2="522" style="stroke:#b0b;stroke-width:1;"/>
   <line x1="346.5" y1="582" x2="342.96446609407" y2="585.53553390593" style="stroke:#b0b;stroke-width:2;"/>
   <line x1="346.5" y1="582" x2="342.96446609407" y2="578.46446609407" style="stroke:#b0b;stroke-width:2;"/>
   <line x1="999" y1="522" x2="995.46446609407" y2="525.53553390593" style="stroke:#b0b;stroke-width:2;"/>
   <line x1="999" y1="522" x2="995.46446609407" y2="518.46446609407" style="stroke:#b0b;stroke-width:2;"/>
   <line x1="1278" y1="155" x2="1268" y2="155" style="stroke:#0b0;stroke-width:1;"/>
   <line x1="1133" y1="167" x2="1123" y2="167" style="stroke:#0b0;stroke-width:1;"/>
   <line x1="1268" y1="155" x2="1133" y2="167" style="stroke:#0b0;stroke-width:1;"/>
   <line x1="1270.5" y1="155" x2="1274.0355339059" y2="158.53553390593" style="stroke:#0b0;stroke-width:2;"/>
   <line x1="1270.5" y1="155" x2="1274.0355339059" y2="151.46446609407" style="stroke:#0b0;stroke-width:2;"/>
   <line x1="1128" y1="167" x2="1131.5355339059" y2="170.53553390593" style="stroke:#0b0;stroke-width:2;"/>
   <line x1="1128" y1="167" x2="1131.5355339059" y2="163.46446609407" style="stroke:#0b0;stroke-width:2;"/>
   <line x1="1004" y1="542" x2="994" y2="542" style="stroke:#cb0;stroke-width:1;"/>
   <line x1="349" y1="522" x2="339" y2="522" style="stroke:#cb0;stroke-width:1;"/>
   <line x1="994" y1="542" x2="349" y2="522" style="stroke:#cb0;stroke-width:1;"/>
   <line x1="996.5" y1="542" x2="1000.0355339059" y2="545.53553390593" style="stroke:#cb0;stroke-width:2;"/>
   <line x1="996.5" y1="542" x2="1000.0355339059" y2="538.46446609407" style="stroke:#cb0;stroke-width:2;"/>
   <line x1="344" y1="522" x2="347.53553390593" y2="525.53553390593" style="stroke:#cb0;stroke-width:2;"/>
   <line x1="344" y1="522" x2="347.53553390593" y2="518.46446609407" style="stroke:#cb0;stroke-width:2;"/>
   <line x1="1004" y1="482" x2="994" y2="482" style="stroke:#b0b;stroke-width:1;"/>
   <line x1="997" y1="147" x2="1007" y2="147" style="stroke:#b0b;stroke-width:1;"/>
   <line x1="994" y1="482" x2="997" y2="147" style="stroke:#b0b;stroke-width:1;"/>
   <line x1="996.5" y1="482" x2="1000.0355339059" y2="485.53553390593" style="stroke:#b0b;stroke-width:2;"/>
   <line x1="996.5" y1="482" x2="1000.0355339059" y2="478.46446609407" style="stroke:#b0b;stroke-width:2;"/>
   <line x1="1002" y1="147" x2="998.46446609407" y2="150.53553390593" style="stroke:#b0b;stroke-width:2;"/>
   <line x1="1002" y1="147" x2="998.46446609407" y2="143.46446609407" style="stroke:#b0b;stroke-width:2;"/>
   <line x1="680" y1="451" x2="670" y2="451" style="stroke:#b0b;stroke-width:1;"/>
   <line x1="380" y1="68" x2="370" y2="68" style="stroke:#b0b;stroke-width:1;"/>
   <line x1="670" y1="451" x2="380" y2="68" style="stroke:#b0b;stroke-width:1;"/>
   <line x1="672.5" y1="451" x2="676.03553390593" y2="454.53553390593" style="stroke:#b0b;stroke-width:2;"/>
   <line x1="672.5" y1="451" x2="676.03553390593" y2="447.46446609407" style="stroke:#b0b;stroke-width:2;"/>
   <line x1="375" y1="68" x2="378.53553390593" y2="71.535533905933" style="stroke:#b0b;stroke-width:2;"/>
   <line x1="375" y1="68" x2="378.53553390593" y2="64.464466094067" style="stroke:#b0b;stroke-width:2;"/>
   <line x1="680" y1="471" x2="670" y2="471" style="stroke:#bbb;stroke-width:1;"/>
   <line x1="380" y1="88" x2="370" y2="88" style="stroke:#bbb;stroke-width:1;"/>
   <line x1="670" y1="471" x2="380" y2="88" style="stroke:#bbb;stroke-width:1;"/>
   <line x1="672.5" y1="471" x2="676.03553390593" y2="474.53553390593" style="stroke:#bbb;stroke-width:2;"/>
   <line x1="672.5" y1="471" x2="676.03553390593" y2="467.46446609407" style="stroke:#bbb;stroke-width:2;"/>
   <line x1="375" y1="88" x2="378.53553390593" y2="91.535533905933" style="stroke:#bbb;stroke-width:2;"/>
   <line x1="375" y1="88" x2="378.53553390593" y2="84.464466094067" style="stroke:#bbb;stroke-width:2;"/>
   <line x1="680" y1="411" x2="670" y2="411" style="stroke:#0b0;stroke-width:1;"/>
   <line x1="349" y1="522" x2="339" y2="522" style="stroke:#0b0;stroke-width:1;"/>
   <line x1="670" y1="411" x2="349" y2="522" style="stroke:#0b0;stroke-width:1;"/>
   <line x1="672.5" y1="411" x2="676.03553390593" y2="414.53553390593" style="stroke:#0b0;stroke-width:2;"/>
   <line x1="672.5" y1="411" x2="676.03553390593" y2="407.46446609407" style="stroke:#0b0;stroke-width:2;"/>
   <line x1="344" y1="522" x2="347.53553390593" y2="525.53553390593" style="stroke:#0b0;stroke-width:2;"/>
   <line x1="344" y1="522" x2="347.53553390593" y2="518.46446609407" style="stroke:#0b0;stroke-width:2;"/>
   <rect width="116" height="20" x="1007" y="37" style="fill:#007;stroke:black;"/>
   <text width="116" height="20" x="1012" y="51" style="fill:#fff;" font-family="Arial" font-size="16px"> acties</text>
   <rect width="116" height="20" x="1007" y="57" style="fill:none;stroke:black;"/>
   <text width="116" height="20" x="1012" y="71" style="fill:black;" font-family="Arial" font-size="16px">actie_id</text>
   <rect width="116" height="20" x="1007" y="77" style="fill:none;stroke:black;"/>
   <text width="116" height="20" x="1012" y="91" style="fill:black;" font-family="Arial" font-size="16px">actie_naam</text>
   <rect width="116" height="20" x="1007" y="97" style="fill:none;stroke:black;"/>
   <text width="116" height="20" x="1012" y="111" style="fill:black;" font-family="Arial" font-size="16px">product_id</text>
   <rect width="116" height="20" x="1007" y="117" style="fill:none;stroke:black;"/>
   <text width="116" height="20" x="1012" y="131" style="fill:black;" font-family="Arial" font-size="16px">product_prijs</text>
   <rect width="116" height="20" x="1007" y="137" style="fill:none;stroke:black;"/>
   <text width="116" height="20" x="1012" y="151" style="fill:black;" font-family="Arial" font-size="16px">nieuwsbrief_id</text>
   <rect width="116" height="20" x="1007" y="157" style="fill:none;stroke:black;"/>
   <text width="116" height="20" x="1012" y="171" style="fill:black;" font-family="Arial" font-size="16px">medewerker_id</text>
   <rect width="133" height="20" x="676" y="149" style="fill:#007;stroke:black;"/>
   <text width="133" height="20" x="681" y="163" style="fill:#fff;" font-family="Arial" font-size="16px"> bestellingen</text>
   <rect width="133" height="20" x="676" y="169" style="fill:none;stroke:black;"/>
   <text width="133" height="20" x="681" y="183" style="fill:black;" font-family="Arial" font-size="16px">bestelling_id</text>
   <rect width="133" height="20" x="676" y="189" style="fill:none;stroke:black;"/>
   <text width="133" height="20" x="681" y="203" style="fill:black;" font-family="Arial" font-size="16px">product_id</text>
   <rect width="133" height="20" x="676" y="209" style="fill:none;stroke:black;"/>
   <text width="133" height="20" x="681" y="223" style="fill:black;" font-family="Arial" font-size="16px">klant_id</text>
   <rect width="133" height="20" x="676" y="229" style="fill:none;stroke:black;"/>
   <text width="133" height="20" x="681" y="243" style="fill:black;" font-family="Arial" font-size="16px">bestelling_bedrag</text>
   <rect width="133" height="20" x="676" y="249" style="fill:none;stroke:black;"/>
   <text width="133" height="20" x="681" y="263" style="fill:black;" font-family="Arial" font-size="16px">bestelling_status</text>
   <rect width="133" height="20" x="206" y="492" style="fill:#007;stroke:black;"/>
   <text width="133" height="20" x="211" y="506" style="fill:#fff;" font-family="Arial" font-size="16px"> klanten</text>
   <rect width="133" height="20" x="206" y="512" style="fill:none;stroke:black;"/>
   <text width="133" height="20" x="211" y="526" style="fill:black;" font-family="Arial" font-size="16px">klant_id</text>
   <rect width="133" height="20" x="206" y="532" style="fill:none;stroke:black;"/>
   <text width="133" height="20" x="211" y="546" style="fill:black;" font-family="Arial" font-size="16px">klant_voornaam</text>
   <rect width="133" height="20" x="206" y="552" style="fill:none;stroke:black;"/>
   <text width="133" height="20" x="211" y="566" style="fill:black;" font-family="Arial" font-size="16px">klant_achternaam</text>
   <rect width="133" height="20" x="206" y="572" style="fill:none;stroke:black;"/>
   <text width="133" height="20" x="211" y="586" style="fill:black;" font-family="Arial" font-size="16px">klant_email</text>
   <rect width="133" height="20" x="206" y="592" style="fill:none;stroke:black;"/>
   <text width="133" height="20" x="211" y="606" style="fill:black;" font-family="Arial" font-size="16px">klant_telefoon</text>
   <rect width="133" height="20" x="206" y="612" style="fill:none;stroke:black;"/>
   <text width="133" height="20" x="211" y="626" style="fill:black;" font-family="Arial" font-size="16px">klant_straat</text>
   <rect width="133" height="20" x="206" y="632" style="fill:none;stroke:black;"/>
   <text width="133" height="20" x="211" y="646" style="fill:black;" font-family="Arial" font-size="16px">klant_huisnr</text>
   <rect width="133" height="20" x="206" y="652" style="fill:none;stroke:black;"/>
   <text width="133" height="20" x="211" y="666" style="fill:black;" font-family="Arial" font-size="16px">klant_postcode</text>
   <rect width="133" height="20" x="206" y="672" style="fill:none;stroke:black;"/>
   <text width="133" height="20" x="211" y="686" style="fill:black;" font-family="Arial" font-size="16px">klant_plaats</text>
   <rect width="189" height="20" x="1278" y="125" style="fill:#007;stroke:black;"/>
   <text width="189" height="20" x="1283" y="139" style="fill:#fff;" font-family="Arial" font-size="16px"> medewerkers</text>
   <rect width="189" height="20" x="1278" y="145" style="fill:none;stroke:black;"/>
   <text width="189" height="20" x="1283" y="159" style="fill:black;" font-family="Arial" font-size="16px">medewerker_id</text>
   <rect width="189" height="20" x="1278" y="165" style="fill:none;stroke:black;"/>
   <text width="189" height="20" x="1283" y="179" style="fill:black;" font-family="Arial" font-size="16px">medewerker_voornaam</text>
   <rect width="189" height="20" x="1278" y="185" style="fill:none;stroke:black;"/>
   <text width="189" height="20" x="1283" y="199" style="fill:black;" font-family="Arial" font-size="16px">medewerker_achternaam</text>
   <rect width="189" height="20" x="1278" y="205" style="fill:none;stroke:black;"/>
   <text width="189" height="20" x="1283" y="219" style="fill:black;" font-family="Arial" font-size="16px">medewerker_email</text>
   <rect width="189" height="20" x="1278" y="225" style="fill:none;stroke:black;"/>
   <text width="189" height="20" x="1283" y="239" style="fill:black;" font-family="Arial" font-size="16px">medewerker_telefoon</text>
   <rect width="189" height="20" x="1278" y="245" style="fill:none;stroke:black;"/>
   <text width="189" height="20" x="1283" y="259" style="fill:black;" font-family="Arial" font-size="16px">medewerker_username</text>
   <rect width="189" height="20" x="1278" y="265" style="fill:none;stroke:black;"/>
   <text width="189" height="20" x="1283" y="279" style="fill:black;" font-family="Arial" font-size="16px">medewerker_wachtwoord</text>
   <rect width="189" height="20" x="1278" y="285" style="fill:none;stroke:black;"/>
   <text width="189" height="20" x="1283" y="299" style="fill:black;" font-family="Arial" font-size="16px">medewerker_rol</text>
   <rect width="189" height="20" x="1278" y="305" style="fill:none;stroke:black;"/>
   <text width="189" height="20" x="1283" y="319" style="fill:black;" font-family="Arial" font-size="16px">medewerker_geslacht</text>
   <rect width="135" height="20" x="1004" y="452" style="fill:#007;stroke:black;"/>
   <text width="135" height="20" x="1009" y="466" style="fill:#fff;" font-family="Arial" font-size="16px"> nieuwsbrief</text>
   <rect width="135" height="20" x="1004" y="472" style="fill:none;stroke:black;"/>
   <text width="135" height="20" x="1009" y="486" style="fill:black;" font-family="Arial" font-size="16px">nieuwsbrief_id</text>
   <rect width="135" height="20" x="1004" y="492" style="fill:none;stroke:black;"/>
   <text width="135" height="20" x="1009" y="506" style="fill:black;" font-family="Arial" font-size="16px">nieuwsbrief_email</text>
   <rect width="135" height="20" x="1004" y="512" style="fill:none;stroke:black;"/>
   <text width="135" height="20" x="1009" y="526" style="fill:black;" font-family="Arial" font-size="16px">klant_email</text>
   <rect width="135" height="20" x="1004" y="532" style="fill:none;stroke:black;"/>
   <text width="135" height="20" x="1009" y="546" style="fill:black;" font-family="Arial" font-size="16px">klant_id</text>
   <rect width="135" height="20" x="1004" y="552" style="fill:none;stroke:black;"/>
   <text width="135" height="20" x="1009" y="566" style="fill:black;" font-family="Arial" font-size="16px">klant_achternaam</text>
   <rect width="135" height="20" x="1004" y="572" style="fill:none;stroke:black;"/>
   <text width="135" height="20" x="1009" y="586" style="fill:black;" font-family="Arial" font-size="16px">klant_geslacht</text>
   <rect width="158" height="20" x="212" y="38" style="fill:#007;stroke:black;"/>
   <text width="158" height="20" x="217" y="52" style="fill:#fff;" font-family="Arial" font-size="16px"> producten</text>
   <rect width="158" height="20" x="212" y="58" style="fill:none;stroke:black;"/>
   <text width="158" height="20" x="217" y="72" style="fill:black;" font-family="Arial" font-size="16px">product_id</text>
   <rect width="158" height="20" x="212" y="78" style="fill:none;stroke:black;"/>
   <text width="158" height="20" x="217" y="92" style="fill:black;" font-family="Arial" font-size="16px">product_naam</text>
   <rect width="158" height="20" x="212" y="98" style="fill:none;stroke:black;"/>
   <text width="158" height="20" x="217" y="112" style="fill:black;" font-family="Arial" font-size="16px">product_merk</text>
   <rect width="158" height="20" x="212" y="118" style="fill:none;stroke:black;"/>
   <text width="158" height="20" x="217" y="132" style="fill:black;" font-family="Arial" font-size="16px">product_categorie</text>
   <rect width="158" height="20" x="212" y="138" style="fill:none;stroke:black;"/>
   <text width="158" height="20" x="217" y="152" style="fill:black;" font-family="Arial" font-size="16px">product_prijs</text>
   <rect width="158" height="20" x="212" y="158" style="fill:none;stroke:black;"/>
   <text width="158" height="20" x="217" y="172" style="fill:black;" font-family="Arial" font-size="16px">product_omschrijving</text>
   <rect width="158" height="20" x="212" y="178" style="fill:none;stroke:black;"/>
   <text width="158" height="20" x="217" y="192" style="fill:black;" font-family="Arial" font-size="16px">product_specificaties</text>
   <rect width="158" height="20" x="212" y="198" style="fill:none;stroke:black;"/>
   <text width="158" height="20" x="217" y="212" style="fill:black;" font-family="Arial" font-size="16px">product_foto1</text>
   <rect width="158" height="20" x="212" y="218" style="fill:none;stroke:black;"/>
   <text width="158" height="20" x="217" y="232" style="fill:black;" font-family="Arial" font-size="16px">product_foto2</text>
   <rect width="158" height="20" x="212" y="238" style="fill:none;stroke:black;"/>
   <text width="158" height="20" x="217" y="252" style="fill:black;" font-family="Arial" font-size="16px">product_foto3</text>
   <rect width="146" height="20" x="680" y="281" style="fill:#007;stroke:black;"/>
   <text width="146" height="20" x="685" y="295" style="fill:#fff;" font-family="Arial" font-size="16px"> reviews</text>
   <rect width="146" height="20" x="680" y="301" style="fill:none;stroke:black;"/>
   <text width="146" height="20" x="685" y="315" style="fill:black;" font-family="Arial" font-size="16px">review_id</text>
   <rect width="146" height="20" x="680" y="321" style="fill:none;stroke:black;"/>
   <text width="146" height="20" x="685" y="335" style="fill:black;" font-family="Arial" font-size="16px">review_titel</text>
   <rect width="146" height="20" x="680" y="341" style="fill:none;stroke:black;"/>
   <text width="146" height="20" x="685" y="355" style="fill:black;" font-family="Arial" font-size="16px">review_beschrijving</text>
   <rect width="146" height="20" x="680" y="361" style="fill:none;stroke:black;"/>
   <text width="146" height="20" x="685" y="375" style="fill:black;" font-family="Arial" font-size="16px">review_rating</text>
   <rect width="146" height="20" x="680" y="381" style="fill:none;stroke:black;"/>
   <text width="146" height="20" x="685" y="395" style="fill:black;" font-family="Arial" font-size="16px">review_date</text>
   <rect width="146" height="20" x="680" y="401" style="fill:none;stroke:black;"/>
   <text width="146" height="20" x="685" y="415" style="fill:black;" font-family="Arial" font-size="16px">klant_id</text>
   <rect width="146" height="20" x="680" y="421" style="fill:none;stroke:black;"/>
   <text width="146" height="20" x="685" y="435" style="fill:black;" font-family="Arial" font-size="16px">bestelling_id</text>
   <rect width="146" height="20" x="680" y="441" style="fill:none;stroke:black;"/>
   <text width="146" height="20" x="685" y="455" style="fill:black;" font-family="Arial" font-size="16px">product_id</text>
   <rect width="146" height="20" x="680" y="461" style="fill:none;stroke:black;"/>
   <text width="146" height="20" x="685" y="475" style="fill:black;" font-family="Arial" font-size="16px">product_naam</text>
   <rect width="146" height="20" x="680" y="481" style="fill:none;stroke:black;"/>
   <text width="146" height="20" x="685" y="495" style="fill:black;" font-family="Arial" font-size="16px">klant_voornaam</text>
</svg>
